<?xml version="1.0" standalone="no"?>
<!DOCTYPE svg PUBLIC "-//W3C//DTD SVG 20010904//EN"
 "http://www.w3.org/TR/2001/REC-SVG-20010904/DTD/svg10.dtd">
<svg version="1.0" xmlns="http://www.w3.org/2000/svg"
 width="260.000000pt" height="260.000000pt" viewBox="0 0 260.000000 260.000000"
 preserveAspectRatio="xMidYMid meet">
<metadata>
Created by potrace 1.14, written by Peter Selinger 2001-2017
</metadata>
<g transform="translate(0.000000,260.000000) scale(0.100000,-0.100000)"
fill="#000000" stroke="none">
<path d="M1137 2570 c13 -14 1 -40 -19 -40 -6 0 -6 6 1 14 7 8 8 17 3 20 -15
9 -20 -3 -16 -34 3 -15 1 -31 -5 -34 -5 -3 -7 4 -4 16 4 19 3 20 -6 8 -10 -13
-11 -13 -11 0 0 12 -2 13 -9 1 -7 -10 -12 -11 -27 -1 -17 10 -17 11 -1 6 11
-4 16 -2 12 5 -4 6 -13 8 -21 5 -8 -3 -14 -1 -14 5 0 6 -7 3 -16 -6 -9 -9 -13
-19 -10 -23 4 -3 10 -1 14 5 5 8 11 7 19 -3 8 -8 9 -15 3 -19 -6 -3 -10 -1
-10 5 0 8 -6 8 -20 0 -11 -6 -20 -7 -20 -3 -1 4 -7 -3 -14 -16 l-13 -24 0 26
c0 20 4 25 20 21 11 -2 17 0 13 3 -4 4 -18 8 -31 9 -21 1 -24 -2 -19 -25 3
-14 2 -22 -3 -16 -15 18 -47 41 -39 28 4 -7 2 -13 -3 -13 -6 0 -11 5 -11 12 0
6 -3 9 -6 6 -3 -4 2 -19 12 -35 10 -15 12 -23 5 -16 -9 7 -20 8 -30 3 -9 -5
-24 -11 -34 -14 -10 -3 -15 -10 -12 -16 4 -6 -1 -7 -10 -3 -12 4 -13 8 -5 13
8 5 6 9 -7 12 -25 6 -43 -1 -43 -18 0 -8 -6 -11 -16 -7 -11 4 -12 8 -4 13 8 5
8 9 -2 13 -16 6 -21 -24 -6 -34 5 -3 1 -9 -10 -11 -16 -5 -19 -2 -14 11 5 14
4 14 -11 2 -10 -8 -17 -9 -17 -3 0 6 5 14 10 17 6 3 10 12 10 18 0 7 -10 -3
-21 -20 -23 -37 -31 -42 -23 -15 4 13 3 14 -4 4 -5 -8 -12 -13 -16 -13 -3 1
-14 1 -23 1 -15 0 -16 -2 -3 -10 9 -6 17 -5 22 3 5 8 8 7 8 -5 0 -9 -4 -20
-10 -23 -5 -3 -10 -2 -10 3 0 5 -9 12 -20 15 -11 3 -18 2 -15 -3 5 -8 -18 -20
-38 -20 -7 0 -6 4 3 10 8 5 10 10 4 10 -6 0 -19 -9 -29 -20 -10 -11 -22 -17
-27 -14 -5 3 -1 12 9 21 16 13 16 13 -6 3 -17 -9 -20 -15 -12 -23 7 -7 16 -12
21 -12 6 0 10 -3 10 -7 0 -29 -2 -31 -11 -16 -5 10 -16 15 -24 11 -9 -3 -23 1
-32 8 -12 10 -15 10 -9 2 4 -7 3 -13 -1 -13 -5 0 -14 -9 -21 -21 -8 -12 -9
-18 -3 -14 6 3 11 0 11 -7 0 -18 -33 -45 -48 -40 -7 2 -11 -2 -10 -10 2 -7 -3
-12 -10 -10 -10 2 -10 -3 2 -20 9 -12 12 -26 7 -32 -5 -6 -12 -21 -15 -33 -6
-19 -4 -22 11 -17 16 6 15 5 -2 -10 -11 -9 -14 -15 -6 -14 8 2 14 -6 16 -19 1
-12 -2 -20 -6 -18 -9 6 -17 -16 -12 -33 3 -6 8 -10 12 -7 5 2 13 -7 20 -21 8
-19 8 -23 0 -18 -7 4 -10 1 -7 -7 3 -8 11 -13 17 -11 7 1 10 -2 7 -7 -4 -5 0
-12 6 -15 7 -3 3 -3 -9 0 -13 3 -23 1 -23 -3 0 -12 22 -33 35 -33 5 0 3 5 -5
10 -13 8 -13 10 1 10 27 0 31 -13 7 -27 l-23 -12 25 -1 c20 0 22 -2 10 -10
-13 -8 -12 -10 5 -11 11 -1 24 -1 28 0 5 1 6 -3 2 -9 -3 -5 -8 -19 -10 -31 -4
-18 -2 -19 12 -7 14 11 15 10 9 -10 -6 -18 -4 -21 11 -16 15 5 15 4 3 -5 -8
-5 -11 -13 -7 -17 3 -4 15 -1 24 7 16 12 17 12 6 -2 -10 -12 -10 -18 0 -29 9
-9 9 -11 0 -6 -7 4 -11 -1 -10 -13 1 -19 2 -19 21 -3 19 17 19 16 4 -8 -14
-23 -14 -26 3 -42 11 -10 19 -14 19 -9 0 6 -4 13 -10 16 -5 3 -10 12 -9 18 0
9 2 8 6 -1 2 -6 8 -10 12 -8 4 3 8 -4 8 -15 1 -11 -5 -23 -13 -26 -18 -7 -18
-20 1 -20 8 0 12 4 9 9 -3 4 -1 8 4 8 6 0 13 -7 16 -16 9 -22 8 -26 -6 -18 -7
5 -8 3 -4 -5 6 -9 12 -8 26 4 14 12 20 13 26 4 4 -8 3 -10 -5 -5 -8 5 -11 -2
-9 -24 1 -17 7 -34 12 -37 5 -3 6 -1 3 4 -4 6 2 13 13 16 14 3 27 -3 41 -21
19 -25 20 -27 2 -40 -17 -13 -16 -14 6 -7 15 4 21 3 17 -3 -3 -5 2 -9 11 -8 9
0 18 -6 20 -14 4 -13 3 -13 -6 0 -6 8 -11 10 -11 4 0 -15 25 -36 33 -28 3 3 3
12 0 20 -3 8 0 14 7 14 6 0 9 -4 5 -9 -6 -11 35 -52 46 -46 4 3 5 -4 2 -15 -3
-12 0 -20 6 -20 7 0 10 4 6 9 -3 5 -1 12 4 15 14 9 21 -8 11 -24 -5 -8 -4 -22
1 -33 10 -18 11 -18 31 0 20 18 21 18 10 -3 -12 -22 -7 -34 12 -34 6 0 5 4 -3
9 -10 7 -10 10 -1 16 15 9 30 -13 23 -34 -4 -14 -3 -14 6 -1 7 10 11 11 11 3
0 -8 11 -11 30 -9 26 3 29 1 18 -12 -11 -13 -9 -14 12 -8 22 6 23 6 6 -5 -16
-10 -22 -8 -34 7 -14 18 -14 18 -8 1 3 -10 6 -21 6 -23 0 -9 46 -4 56 6 7 7
11 7 12 -2 0 -7 4 -24 8 -37 5 -17 4 -22 -5 -17 -6 4 -8 12 -5 18 5 7 2 8 -6
3 -10 -6 -12 -4 -6 11 6 15 5 16 -5 7 -9 -9 -9 -16 -1 -26 7 -8 10 -16 7 -19
-3 -2 10 -5 28 -5 58 -1 67 -3 67 -13 0 -5 -7 -6 -17 -3 -10 4 -14 2 -10 -4 4
-6 1 -14 -5 -17 -7 -3 -2 -3 11 0 13 3 21 2 18 -3 -3 -5 6 -9 21 -9 20 1 27
-4 26 -16 -1 -10 4 -18 12 -18 8 0 11 -6 8 -15 -6 -14 -8 -13 -19 2 -7 9 -11
23 -8 29 6 16 -24 12 -40 -6 -10 -12 -9 -12 6 -1 17 13 23 6 18 -22 -1 -5 3
-6 8 -3 5 3 12 -1 15 -10 3 -8 10 -13 15 -9 9 5 26 -12 26 -27 0 -5 3 -8 8 -8
4 0 10 0 14 0 3 0 -3 11 -16 23 -19 21 -20 25 -6 37 10 8 15 9 15 1 0 -6 -5
-11 -12 -11 -6 0 -3 -9 7 -20 11 -12 25 -18 34 -15 12 5 11 2 -2 -13 -15 -17
-16 -21 -3 -31 11 -10 17 -8 25 6 14 25 14 7 -1 -20 -11 -21 -10 -21 7 -7 17
14 18 13 12 -2 -4 -13 -1 -16 14 -13 18 4 19 2 7 -13 -7 -9 -17 -20 -22 -24
-5 -3 3 -5 18 -5 17 1 24 7 21 15 -3 7 0 10 5 7 6 -4 9 -14 8 -23 -2 -10 3
-16 10 -14 8 1 11 -2 7 -8 -4 -6 1 -18 11 -26 18 -14 18 -15 -1 -6 -24 12 -50
-9 -33 -26 7 -7 6 -17 -2 -33 -9 -20 -9 -22 2 -9 7 8 20 21 29 27 14 11 16 9
14 -15 -1 -20 -6 -27 -23 -28 -26 -1 -38 -11 -28 -21 4 -4 10 -2 14 4 5 8 13
9 22 3 11 -7 11 -10 2 -10 -7 0 -18 -11 -24 -25 -9 -21 -14 -23 -27 -12 -14
11 -14 10 -2 -5 12 -16 15 -16 42 13 24 26 49 32 49 13 0 -3 -4 -2 -10 1 -5 3
-10 1 -10 -5 0 -6 -4 -9 -8 -6 -9 6 -37 -53 -28 -61 10 -10 -14 -42 -28 -37
-8 3 -17 0 -22 -7 -4 -7 -3 -10 4 -6 13 9 42 -2 42 -15 0 -5 -9 -6 -20 -3 -12
4 -20 2 -20 -5 0 -6 4 -9 9 -6 5 3 11 -1 15 -9 3 -9 12 -12 21 -8 13 5 14 7 3
14 -10 7 -10 9 2 9 11 0 11 3 2 12 -16 16 -15 31 1 25 8 -3 14 1 14 9 0 7 -3
11 -7 9 -3 -2 -7 8 -8 23 -1 21 0 24 9 12 8 -13 9 -13 7 2 -2 9 2 17 7 17 6 0
8 -8 7 -17 -3 -14 -1 -14 12 -3 14 12 16 11 10 -3 -4 -10 -13 -15 -20 -12 -22
8 -16 -11 8 -28 12 -9 17 -16 10 -16 -7 0 -10 -4 -7 -10 3 -5 1 -10 -4 -10 -6
0 -11 5 -11 12 0 16 -13 1 -16 -18 -2 -11 3 -14 14 -9 9 3 13 3 9 -1 -4 -4 -2
-13 4 -21 8 -8 8 -13 1 -13 -6 0 -12 6 -15 13 -2 6 -7 9 -11 5 -4 -3 0 -19 9
-35 l17 -28 -21 24 c-12 13 -21 20 -21 17 0 -4 -13 0 -30 9 -42 22 -51 18 -12
-5 35 -22 38 -29 20 -49 -11 -11 -10 -13 5 -7 10 3 21 6 23 6 3 0 2 6 -2 13
-4 6 -3 8 1 4 14 -12 14 -36 1 -31 -17 7 -37 -19 -40 -51 -5 -38 -15 -42 -13
-4 1 18 -3 34 -9 36 -6 2 -11 -11 -11 -34 -1 -59 -2 -65 -13 -58 -16 10 -12
-12 6 -29 8 -9 11 -16 5 -16 -6 0 -15 8 -20 19 -7 12 -19 17 -36 16 -16 -2
-23 1 -19 7 4 6 2 8 -4 4 -6 -3 -13 -2 -17 4 -3 5 -1 10 6 10 10 0 10 3 1 12
-14 14 -16 28 -3 28 5 0 14 -14 21 -30 14 -33 25 -38 34 -14 8 22 10 20 -28
42 -29 17 -35 18 -40 6 -3 -9 -10 -13 -15 -9 -16 9 -24 -15 -10 -31 11 -13 10
-15 -6 -12 -10 1 -20 -4 -22 -12 -3 -9 -1 -11 4 -5 13 16 50 16 50 -1 0 -9 -7
-12 -19 -8 -10 3 -18 0 -18 -6 0 -6 5 -8 10 -5 6 3 10 1 10 -4 0 -6 6 -10 13
-9 6 2 11 -3 9 -9 -2 -14 10 -17 21 -6 4 3 -1 12 -11 20 -9 8 -11 11 -3 7 10
-5 12 -3 6 5 -6 10 -3 11 14 2 12 -7 25 -9 30 -7 5 3 12 -1 15 -10 8 -21 8
-24 -5 -24 -5 0 -7 5 -4 10 7 11 -18 14 -28 3 -9 -8 31 -36 42 -29 5 4 7 -3 4
-14 -5 -19 -6 -19 -18 -4 -6 9 -24 18 -39 20 -23 2 -26 1 -15 -12 7 -8 18 -13
25 -10 28 11 25 -17 -5 -54 -17 -21 -36 -50 -42 -64 -7 -14 -15 -24 -18 -22
-3 2 -20 -17 -36 -42 l-30 -47 70 0 c39 1 75 4 81 8 6 3 14 3 18 -1 13 -12
619 -10 635 2 11 8 13 8 7 -2 -6 -9 -1 -11 18 -8 14 3 31 8 37 12 7 4 9 3 6
-3 -3 -5 1 -10 9 -10 8 0 13 6 10 13 -3 8 0 11 9 7 8 -3 13 -8 10 -12 -2 -4
13 -7 33 -6 23 1 36 6 34 14 -1 6 -3 23 -4 36 -2 20 -7 24 -25 20 -30 -5 -29
8 2 25 14 7 25 17 25 22 0 13 -8 10 -40 -14 -30 -21 -30 -21 -44 -2 -8 10 -12
21 -10 23 2 3 11 -4 19 -15 11 -15 14 -16 15 -3 0 25 -21 39 -42 28 -10 -5
-23 -7 -28 -4 -11 7 -2 35 12 35 6 0 5 -6 -2 -15 -7 -8 -9 -15 -4 -15 12 0 36
16 36 23 0 19 12 47 19 47 11 0 7 -23 -6 -32 -6 -5 -3 -8 7 -8 9 0 18 -3 21
-7 2 -5 2 -1 0 7 -2 11 1 10 11 -3 19 -25 29 2 10 28 -18 25 -18 32 4 39 10 3
8 4 -7 3 -13 -1 -26 4 -29 12 -3 10 0 11 9 5 12 -6 12 -5 0 10 -8 9 -20 15
-28 12 -7 -3 -13 -1 -13 4 0 6 9 10 19 10 11 0 23 5 27 11 4 7 0 9 -13 5 -23
-7 -29 20 -6 28 15 6 18 32 4 40 -5 4 -7 -4 -3 -16 4 -17 2 -20 -12 -15 -11 5
-15 3 -10 -5 5 -7 2 -8 -7 -3 -11 6 -11 5 -2 -5 13 -14 2 -46 -21 -63 -6 -5
-3 -6 9 -2 11 3 16 3 12 -1 -4 -4 -1 -14 6 -22 10 -13 9 -14 -3 -7 -13 8 -13
7 0 -10 14 -17 14 -17 -7 -4 -16 10 -19 16 -10 22 8 6 4 7 -10 4 -19 -4 -21
-2 -13 13 6 11 15 22 20 25 15 9 12 25 -6 25 -8 0 -13 -3 -10 -8 2 -4 -2 -16
-10 -27 -8 -10 -14 -14 -14 -8 0 7 5 15 10 18 6 4 8 11 4 16 -3 6 4 13 16 16
16 4 18 8 8 14 -10 7 -11 9 0 9 7 0 10 5 7 10 -4 6 -3 9 2 8 4 -1 21 9 36 24
19 18 24 28 15 31 -11 4 -10 6 0 6 7 1 11 5 7 10 -3 5 0 13 6 17 8 4 9 3 5 -4
-4 -7 -3 -12 2 -12 5 0 12 9 15 20 3 11 1 18 -3 15 -19 -12 -2 25 20 45 14 12
19 19 13 15 -15 -7 -18 11 -3 20 6 4 8 11 5 16 -4 5 -1 9 4 9 6 0 11 5 11 11
0 5 -6 7 -12 3 -9 -6 -9 -3 0 9 8 9 10 22 6 28 -4 8 -3 9 4 5 11 -7 17 6 13
28 -1 4 4 14 10 22 9 11 9 14 0 14 -7 0 -9 5 -6 10 4 6 11 7 17 4 7 -5 8 -2 3
6 -12 20 -13 110 0 110 5 0 4 4 -4 9 -9 6 -10 11 -2 15 6 4 11 13 11 19 0 8
-3 8 -9 -1 -7 -11 -9 -11 -14 2 -4 9 -2 16 3 16 6 0 10 5 10 11 0 5 -4 8 -8 5
-13 -8 -12 37 1 53 10 12 9 14 -4 9 -13 -5 -16 -2 -11 14 4 16 2 19 -9 13 -12
-8 -12 -6 0 8 10 13 10 17 1 17 -9 0 -9 4 1 17 10 11 10 14 2 9 -9 -5 -13 -1
-13 13 0 11 -5 23 -10 26 -6 4 -8 11 -5 16 4 5 0 9 -7 9 -7 1 -2 8 12 16 24
14 24 15 3 11 -13 -3 -26 0 -30 5 -3 7 -1 8 5 4 11 -6 14 0 11 20 0 4 5 11 13
16 10 8 10 9 -2 5 -8 -2 -14 -10 -12 -16 1 -7 -2 -10 -8 -6 -7 4 -7 12 0 26 6
11 15 17 20 14 5 -3 11 -1 15 4 3 6 -6 8 -21 5 -25 -5 -26 -3 -13 12 8 10 9
15 4 12 -6 -4 -15 4 -21 17 -12 24 -11 24 15 7 25 -16 25 -16 12 1 -12 16 -9
22 12 18 5 -1 6 3 2 9 -5 8 -11 8 -20 0 -9 -8 -15 -6 -20 7 -13 30 -14 43 -3
49 6 4 5 10 -3 16 -11 8 -11 9 1 5 8 -2 14 -10 13 -16 -2 -6 2 -11 7 -11 6 0
10 5 10 11 0 5 4 7 10 4 6 -3 7 1 3 10 -4 12 -8 13 -13 5 -5 -8 -10 -9 -14 -2
-3 6 -2 13 4 17 6 4 7 11 4 17 -5 8 -1 9 12 5 18 -7 18 -6 2 6 -10 8 -14 18
-10 22 4 5 1 5 -6 1 -7 -4 -10 -11 -7 -16 3 -5 1 -11 -5 -15 -6 -4 -8 -11 -5
-16 4 -5 2 -9 -3 -9 -5 0 -9 13 -8 29 0 16 4 27 8 25 5 -3 8 -1 8 5 0 5 -6 12
-12 14 -10 4 -10 6 0 6 7 1 10 6 6 13 -4 7 -3 8 4 4 8 -5 12 1 12 14 0 13 -4
19 -12 14 -7 -5 -8 -3 -2 7 9 14 10 19 13 39 0 6 9 10 19 10 14 0 15 -2 2 -10
-8 -5 -11 -10 -5 -10 5 0 4 -5 -3 -12 -9 -9 -8 -16 5 -30 9 -10 21 -18 27 -18
6 0 0 7 -12 16 -12 8 -20 20 -16 25 3 6 12 3 21 -8 13 -17 13 -16 4 4 -14 29
-14 36 2 27 8 -6 8 -3 -1 9 -8 9 -11 21 -7 28 6 8 1 8 -16 -1 -21 -10 -22 -10
-7 3 10 8 14 18 10 22 -4 4 4 2 18 -5 24 -13 24 -12 10 5 -14 16 -13 17 7 11
22 -7 41 8 23 19 -6 4 -8 11 -5 16 3 5 0 6 -8 3 -8 -3 -14 2 -14 11 0 8 3 13
5 10 3 -3 14 2 24 11 15 14 20 15 35 3 16 -13 17 -12 4 4 -14 18 -2 24 15 7 7
-7 11 -6 11 4 0 8 -4 13 -9 10 -4 -3 -8 2 -8 10 0 10 6 13 18 10 12 -4 14 -3
4 4 -8 5 -24 8 -38 6 -13 -1 -24 2 -24 7 0 6 6 9 13 8 29 -4 57 2 57 12 0 5
-4 8 -8 5 -4 -2 -14 0 -22 6 -13 8 -12 9 2 5 22 -7 40 15 32 39 -3 11 -2 15 3
8 4 -6 17 -14 27 -18 19 -7 19 -6 2 13 -11 12 -14 21 -6 26 5 3 8 10 5 15 -3
4 2 11 11 14 15 6 15 4 2 -15 -13 -20 -12 -24 9 -47 12 -13 20 -30 16 -36 -3
-6 -2 -7 2 -3 11 9 16 39 6 33 -4 -3 -12 4 -19 15 -7 10 -8 19 -3 19 6 0 13
-4 16 -10 3 -5 12 -10 18 -10 7 0 4 5 -6 11 -9 6 -14 15 -11 21 5 7 2 8 -6 3
-8 -5 -11 -4 -6 3 7 12 46 12 46 1 0 -4 -6 -10 -12 -12 -10 -4 -10 -6 -1 -6 7
-1 18 8 25 18 11 18 13 18 35 4 13 -9 26 -13 29 -10 3 3 -4 8 -15 12 -21 6
-29 25 -12 25 11 0 8 47 -4 58 -4 4 -5 1 0 -7 5 -9 4 -12 -3 -7 -8 5 -10 1 -5
-10 5 -14 3 -16 -13 -11 -19 7 -19 7 0 -8 19 -14 11 -21 -17 -16 -5 1 -6 -3
-2 -8 6 -11 -34 -6 -44 5 -3 4 2 4 11 1 10 -3 20 -2 23 3 4 6 -2 10 -12 11
-14 0 -12 3 7 11 14 6 29 10 33 9 5 -1 6 3 2 9 -4 6 -16 8 -28 5 -21 -5 -21
-4 1 7 14 7 21 17 17 27 -4 13 -2 12 8 -1 8 -10 17 -15 20 -12 9 10 -4 34 -19
34 -8 0 -14 4 -14 10 0 5 8 6 18 3 15 -6 15 -5 3 11 -14 16 -16 17 -27 1 -8
-10 -14 -12 -19 -5 -3 5 -12 7 -18 4 -7 -4 -8 -3 -4 2 5 5 16 9 24 9 9 0 18
10 20 24 3 20 1 22 -12 11 -9 -7 -18 -10 -22 -6 -3 3 -1 6 7 6 8 0 9 4 4 13
-5 6 -9 21 -9 32 1 22 -30 49 -44 40 -6 -3 -8 4 -6 16 3 16 0 20 -13 15 -16
-6 -16 -5 1 8 21 16 22 23 2 23 -8 0 -15 -4 -15 -9 0 -5 -4 -7 -10 -3 -5 3 0
15 11 26 20 20 20 21 2 34 -10 7 -21 11 -26 8 -4 -2 -13 0 -20 5 -7 5 -20 8
-30 7 -15 -3 -16 -1 -6 11 10 12 9 13 -5 8 -9 -4 -16 -1 -16 6 0 9 -7 7 -20
-5 -25 -23 -26 -15 -1 14 15 18 20 19 24 6 4 -9 13 -12 23 -8 14 5 16 3 10
-12 -4 -11 -4 -16 0 -12 4 4 13 2 21 -4 7 -6 13 -10 14 -8 0 2 2 18 4 34 l4
30 -14 -25 c-13 -22 -21 -15 -16 13 1 5 -3 6 -9 2 -5 -3 -18 -1 -28 4 -13 7
-22 7 -30 -1 -7 -7 -12 -8 -12 -3 0 5 -6 2 -12 -6 -7 -8 -12 -12 -11 -10 6 10
-19 29 -31 25 -8 -3 -18 8 -26 25 -7 17 -17 28 -23 24 -7 -4 -8 0 -3 13 6 16
5 17 -6 6 -11 -11 -10 -16 6 -28 11 -8 16 -14 12 -14 -5 0 -3 -6 3 -13 8 -11
6 -13 -9 -12 -11 1 -23 5 -27 10 -5 4 -2 5 5 1 7 -4 12 -1 12 8 0 19 -4 19
-33 5 -20 -9 -20 -9 -4 4 18 15 24 33 8 22 -5 -3 -12 -1 -16 5 -3 5 1 10 9 10
9 0 16 5 16 11 0 7 -11 4 -27 -6 -25 -17 -26 -17 -19 1 5 15 4 16 -5 7 -13
-13 -3 -37 12 -28 5 4 9 1 9 -4 0 -6 -5 -11 -11 -11 -5 0 -8 -4 -4 -9 3 -5 1
-12 -4 -15 -4 -3 -8 4 -7 16 0 12 -5 23 -13 26 -9 3 -11 0 -6 -8 6 -9 2 -9
-16 1 -29 15 -49 41 -42 53 4 5 0 6 -8 0 -8 -5 -17 -9 -21 -9 -3 0 -10 -4 -15
-8 -4 -5 -3 -7 4 -5 10 3 13 -1 13 -18 0 -4 -7 -1 -16 7 -13 10 -17 10 -25 -2
-5 -8 -9 -10 -9 -5 0 5 8 19 18 30 17 20 17 20 -8 4 -34 -21 -72 -18 -76 5 -1
11 -6 22 -10 25 -4 4 -4 -1 -1 -10 5 -13 1 -18 -12 -18 -11 0 -21 -6 -24 -12
-2 -7 -8 -10 -13 -5 -4 4 2 14 14 23 12 8 22 21 22 27 0 7 -7 3 -15 -7 -8 -11
-15 -16 -15 -10 -1 5 -7 -2 -16 -16 -14 -23 -14 -23 -9 -2 4 13 2 22 -4 22
-10 0 -15 -12 -13 -30 0 -4 -10 -6 -23 -6 -13 0 -22 3 -19 7 2 4 -2 14 -10 22
-8 8 -14 16 -13 18 1 3 -2 1 -7 -3 -5 -4 -15 0 -23 10 -12 16 -13 15 -7 -3 6
-16 5 -18 -7 -7 -7 6 -17 12 -23 12 -5 0 -1 -7 10 -16 19 -15 19 -16 -1 -8
-11 3 -29 6 -40 6 -20 -1 -20 -1 -1 14 11 8 15 14 9 14 -7 0 -15 -5 -18 -10
-4 -6 -11 -8 -16 -4 -5 3 -7 10 -4 15 10 15 -5 10 -22 -7 -13 -12 -13 -18 -3
-27 7 -7 10 -7 7 -1 -3 6 0 11 8 11 17 0 20 -13 5 -22 -6 -4 -18 -1 -27 7 -15
11 -16 11 -10 -7 7 -20 7 -20 -8 0 -9 11 -13 25 -11 32 3 7 -1 10 -10 6 -8 -3
-21 3 -30 13 -14 19 -14 19 -7 0 5 -14 3 -17 -7 -11 -9 6 -11 4 -5 -5 6 -10 4
-12 -8 -7 -21 8 -49 -2 -41 -14 3 -5 10 -6 17 -2 16 10 77 12 77 3 0 -5 -9 -7
-20 -5 -11 2 -20 0 -20 -4 0 -10 -41 -8 -58 3 -7 4 -11 15 -8 23 3 8 1 11 -5
8 -6 -4 -20 1 -32 11 -12 10 -16 12 -10 4z m37 -44 c12 -19 13 -27 3 -32 -6
-4 -9 -4 -5 1 10 10 -11 37 -23 29 -5 -3 -6 2 -3 10 8 21 9 20 28 -8z m245
-19 c0 -9 -2 -8 -6 1 -2 6 -10 9 -15 6 -7 -4 -8 -2 -4 5 9 13 26 5 25 -12z
m41 3 c-24 -15 -36 -11 -14 4 10 8 21 12 24 10 2 -3 -2 -9 -10 -14z m34 4 c3
-8 2 -12 -4 -9 -6 3 -10 10 -10 16 0 14 7 11 14 -7z m152 -26 c4 -7 3 -8 -4
-4 -7 4 -12 2 -12 -5 0 -7 -3 -10 -6 -6 -6 5 3 27 11 27 2 0 7 -5 11 -12z
m152 -19 c-3 -8 -7 -3 -11 10 -4 17 -3 21 5 13 5 -5 8 -16 6 -23z m-884 5 c3
-8 2 -12 -4 -9 -6 3 -10 10 -10 16 0 14 7 11 14 -7z m856 -19 c0 -2 -9 -3 -19
-2 -11 0 -18 5 -15 9 4 6 34 0 34 -7z m-999 -32 c-12 -20 -14 -14 -5 12 4 9 9
14 11 11 3 -2 0 -13 -6 -23z m-75 -40 c-6 -6 -36 9 -36 18 0 5 9 4 20 -3 10
-7 18 -14 16 -15z m-55 -20 c-12 -20 -14 -14 -5 12 4 9 9 14 11 11 3 -2 0 -13
-6 -23z m-44 -15 c-3 -7 -5 -2 -5 12 0 14 2 19 5 13 2 -7 2 -19 0 -25z m-52
-17 c-2 -2 -11 3 -19 12 -8 8 -12 17 -9 21 3 3 12 -2 19 -12 7 -9 11 -19 9
-21z m1642 -8 c2 -6 -1 -14 -6 -18 -7 -3 -8 0 -5 9 4 11 0 13 -14 9 -11 -2
-22 -1 -25 4 -3 5 6 8 21 7 14 0 28 -6 29 -11z m-1706 -7 c8 4 9 3 5 -5 -4 -6
-15 -10 -24 -9 -9 2 -17 -2 -17 -9 0 -6 -4 -15 -9 -20 -5 -4 -6 -3 -2 4 3 6 2
15 -4 18 -8 5 -7 11 1 21 9 11 15 11 25 3 7 -6 19 -7 25 -3z m1680 -43 c13
-16 12 -17 -3 -4 -10 7 -18 15 -18 17 0 8 8 3 21 -13z m-1771 -47 c0 -3 -4 -8
-10 -11 -5 -3 -10 -1 -10 4 0 6 5 11 10 11 6 0 10 -2 10 -4z m1855 -235 c3 -5
2 -12 -3 -15 -5 -3 -9 1 -9 9 0 17 3 19 12 6z m-111 -203 c-3 -4 -9 -8 -15 -8
-5 0 -9 4 -9 8 0 5 7 9 15 9 8 0 12 -4 9 -9z m-39 -88 c3 -5 1 -10 -4 -10 -6
0 -11 5 -11 10 0 6 2 10 4 10 3 0 8 -4 11 -10z m-1385 -180 c0 -5 -2 -10 -4
-10 -3 0 -8 5 -11 10 -3 6 -1 10 4 10 6 0 11 -4 11 -10z m135 -132 c-4 -33 -4
-34 -15 -18 -5 9 -5 19 2 27 14 18 16 17 13 -9z m80 -38 c-3 -5 -1 -10 6 -10
7 0 10 -3 6 -6 -9 -9 -28 6 -22 17 4 5 8 9 11 9 3 0 2 -4 -1 -10z m305 -310
c0 -5 -2 -10 -4 -10 -3 0 -8 5 -11 10 -3 6 -1 10 4 10 6 0 11 -4 11 -10z m100
-160 c0 -5 -4 -10 -10 -10 -5 0 -10 5 -10 10 0 6 5 10 10 10 6 0 10 -4 10 -10z
m55 -260 c3 -5 1 -10 -4 -10 -6 0 -11 5 -11 10 0 6 2 10 4 10 3 0 8 -4 11 -10z
m-55 -121 c0 -5 -4 -7 -10 -4 -16 10 -12 -6 8 -29 13 -16 13 -18 1 -8 -9 6
-18 9 -21 7 -4 -5 -4 34 1 43 4 7 21 0 21 -9z m40 -15 c0 -8 -19 -13 -24 -6
-3 5 1 9 9 9 8 0 15 -2 15 -3z m-220 -46 c0 -13 -23 -5 -28 10 -2 7 2 10 12 6
9 -3 16 -11 16 -16z m60 7 c0 -12 -19 -12 -23 0 -4 9 -1 12 9 8 7 -3 14 -7 14
-8z m105 -5 c3 -6 -1 -7 -9 -4 -18 7 -21 14 -7 14 6 0 13 -4 16 -10z m-23 -17
c-6 -2 -9 -10 -6 -15 4 -7 2 -8 -4 -4 -7 4 -12 2 -12 -3 0 -6 -5 -11 -10 -11
-6 0 -5 8 2 20 7 11 20 20 28 19 10 0 11 -2 2 -6z m41 -25 c-6 -7 -9 -21 -8
-31 2 -9 0 -15 -5 -12 -13 8 1 55 17 55 3 0 1 -6 -4 -12z m-33 -12 c0 -2 -8
-10 -17 -17 -16 -13 -17 -12 -4 4 13 16 21 21 21 13z m-20 -40 c0 -2 -7 -7
-16 -10 -8 -3 -12 -2 -9 4 6 10 25 14 25 6z m590 -6 c0 -5 -5 -10 -11 -10 -5
0 -7 5 -4 10 3 6 8 10 11 10 2 0 4 -4 4 -10z m93 3 c-9 -3 -3 -18 18 -49 24
-36 27 -43 11 -33 -12 7 -18 17 -16 21 3 5 -2 11 -10 14 -9 3 -14 10 -11 14 3
5 1 11 -5 15 -13 8 -3 25 13 24 9 0 9 -2 0 -6z m-659 -24 c3 -3 -5 -5 -19 -5
-13 0 -22 3 -19 7 4 8 30 6 38 -2z m580 -5 c9 -3 16 -11 16 -16 0 -6 -6 -5
-15 2 -8 6 -20 8 -26 4 -8 -4 -9 -3 -5 4 8 14 9 14 30 6z m52 -25 c8 -14 -11
-33 -25 -25 -11 7 -4 36 9 36 5 0 12 -5 16 -11z m-713 -14 c-3 -9 -8 -14 -10
-11 -3 3 -2 9 2 15 9 16 15 13 8 -4z m667 -20 c0 -5 -5 -3 -10 5 -5 8 -10 20
-10 25 0 6 5 3 10 -5 5 -8 10 -19 10 -25z m-626 3 c-3 -4 -11 -5 -19 -1 -21 7
-19 12 4 10 11 0 18 -5 15 -9z m606 -8 c6 -11 8 -20 6 -20 -3 0 -10 9 -16 20
-6 11 -8 20 -6 20 3 0 10 -9 16 -20z m-630 -5 c0 -2 -6 -8 -13 -14 -10 -8 -14
-7 -14 2 0 8 6 14 14 14 7 0 13 -1 13 -2z m607 -12 c0 -9 -4 -10 -14 -2 -7 6
-13 12 -13 14 0 1 6 2 13 2 8 0 14 -6 14 -14z m38 -22 c3 -5 0 -13 -6 -17 -7
-4 -9 -3 -5 4 3 5 0 13 -6 15 -9 4 -10 6 -1 6 6 1 14 -3 18 -8z m-700 -11 c3
-5 2 -10 -4 -10 -5 0 -13 5 -16 10 -3 6 -2 10 4 10 5 0 13 -4 16 -10z m719
-18 c3 -5 -1 -9 -9 -9 -8 0 -12 4 -9 9 3 4 7 8 9 8 2 0 6 -4 9 -8z m-734 -16
c0 -2 -7 -6 -15 -10 -8 -3 -15 -1 -15 4 0 6 7 10 15 10 8 0 15 -2 15 -4z m763
-13 c-5 -12 -3 -14 7 -8 8 5 11 4 6 -3 -4 -6 -13 -9 -22 -5 -11 4 -12 9 -3 19
15 19 20 18 12 -3z m-803 -13 c0 -5 -5 -10 -11 -10 -8 0 -7 -6 2 -17 13 -16
12 -17 -3 -5 -9 8 -14 20 -11 28 6 16 23 19 23 4z m883 -13 c3 -8 -4 -13 -19
-13 -26 0 -32 11 -11 19 20 9 25 8 30 -6z"/>
<path d="M1915 280 c-3 -5 -1 -10 4 -10 6 0 11 5 11 10 0 6 -2 10 -4 10 -3 0
-8 -4 -11 -10z"/>
<path d="M1550 2558 c0 -6 3 -8 7 -5 3 4 13 1 22 -6 14 -11 14 -10 2 6 -15 20
-31 22 -31 5z"/>
<path d="M955 2551 c-6 -11 13 -26 22 -17 4 3 1 6 -6 6 -7 0 -9 5 -6 10 3 6 4
10 1 10 -3 0 -7 -4 -11 -9z"/>
<path d="M1060 2542 c0 -5 7 -9 15 -9 8 0 15 4 15 9 0 4 -7 8 -15 8 -8 0 -15
-4 -15 -8z"/>
<path d="M1755 2541 c-3 -5 -2 -12 3 -15 5 -3 9 1 9 9 0 17 -3 19 -12 6z"/>
<path d="M1520 2520 c11 -21 30 -19 30 3 0 7 -4 6 -10 -3 -8 -13 -10 -12 -10
3 0 9 -5 17 -10 17 -7 0 -7 -7 0 -20z"/>
<path d="M1677 2524 c-12 -13 -8 -22 10 -20 9 2 19 9 21 17 3 12 2 12 -6 0 -7
-9 -11 -10 -13 -2 -3 7 -8 9 -12 5z"/>
<path d="M1826 2495 c-6 -17 12 -31 24 -19 5 5 2 14 -5 21 -10 10 -14 9 -19
-2z"/>
<path d="M830 2478 c0 -20 8 -22 29 -9 9 6 10 11 2 15 -6 4 -11 1 -11 -6 0 -9
-3 -9 -10 2 -8 13 -10 12 -10 -2z"/>
<path d="M780 2473 c0 -1 8 -7 18 -12 13 -7 19 -6 19 2 0 7 -9 13 -19 13 -10
0 -18 -1 -18 -3z"/>
<path d="M1981 2465 c-1 -15 17 -40 29 -41 5 -1 11 -3 13 -4 1 -1 12 -4 25 -5
25 -3 30 10 6 19 -9 4 -13 2 -8 -5 4 -7 1 -10 -7 -7 -8 3 -14 10 -14 16 0 5
-4 14 -8 19 -5 4 -8 4 -7 -2 5 -25 -2 -28 -15 -5 -8 14 -14 21 -14 15z"/>
<path d="M2071 2447 c2 -1 13 -9 24 -17 19 -14 19 -14 6 3 -7 9 -18 17 -24 17
-6 0 -8 -1 -6 -3z"/>
<path d="M556 2422 c-3 -5 1 -9 9 -9 8 0 12 4 9 9 -3 4 -7 8 -9 8 -2 0 -6 -4
-9 -8z"/>
<path d="M450 2361 c0 -6 4 -13 10 -16 6 -3 7 1 4 9 -7 18 -14 21 -14 7z"/>
<path d="M2215 2340 c3 -5 8 -10 11 -10 2 0 4 5 4 10 0 6 -5 10 -11 10 -5 0
-7 -4 -4 -10z"/>
<path d="M2205 2300 c-4 -6 -1 -9 7 -8 8 2 13 -6 13 -22 -1 -17 9 -31 28 -43
15 -9 25 -22 22 -27 -3 -6 -1 -10 6 -10 8 0 8 -4 -1 -15 -7 -8 -10 -16 -6 -16
3 -1 10 -2 16 -3 5 0 15 -7 22 -13 10 -10 9 -13 -2 -13 -9 0 -7 -7 8 -22 11
-13 22 -27 24 -33 2 -5 6 -9 10 -8 12 4 10 -11 -3 -24 -8 -8 -7 -13 2 -19 7
-4 14 -3 17 4 2 7 9 9 15 5 7 -4 6 1 -2 10 -11 14 -11 20 0 34 10 11 10 14 2
9 -8 -4 -13 -2 -13 4 0 7 -6 10 -14 7 -22 -9 -28 21 -7 33 10 5 21 17 25 27 5
16 5 16 -7 2 -11 -15 -15 -15 -45 1 -20 11 -29 21 -22 25 6 4 20 -1 31 -11 33
-29 21 -9 -21 37 -22 24 -40 38 -40 31 0 -7 -5 -10 -10 -7 -8 5 -8 11 0 20 8
10 8 15 0 20 -6 4 -9 14 -5 22 4 13 3 14 -10 3 -10 -8 -15 -9 -15 -1 0 14 -17
14 -25 1z m49 -41 c-3 -5 -10 -7 -15 -3 -5 3 -7 10 -3 15 3 5 10 7 15 3 5 -3
7 -10 3 -15z m40 -45 c9 -24 2 -26 -12 -4 -7 11 -8 20 -3 20 5 0 12 -7 15 -16z
m35 -68 c9 -11 9 -16 -1 -22 -7 -4 -10 -4 -6 1 4 4 3 14 -3 22 -6 7 -9 13 -6
13 2 0 10 -6 16 -14z m35 -64 c3 -5 -1 -9 -9 -9 -8 0 -12 4 -9 9 3 4 7 8 9 8
2 0 6 -4 9 -8z"/>
<path d="M373 2284 c-9 -9 -9 -13 1 -17 20 -8 36 6 22 19 -9 8 -15 7 -23 -2z"/>
<path d="M2276 2287 c3 -10 9 -15 12 -12 3 3 0 11 -7 18 -10 9 -11 8 -5 -6z"/>
<path d="M2313 2245 c0 -8 4 -15 9 -15 4 0 8 4 8 9 0 6 -4 12 -8 15 -5 3 -9
-1 -9 -9z"/>
<path d="M2396 2207 c3 -10 9 -15 12 -12 3 3 0 11 -7 18 -10 9 -11 8 -5 -6z"/>
<path d="M2346 2198 c3 -5 10 -6 15 -3 13 9 11 12 -6 12 -8 0 -12 -4 -9 -9z"/>
<path d="M345 2190 c6 -10 4 -12 -11 -6 -15 6 -17 5 -6 -5 9 -9 15 -10 23 -2
8 8 7 13 -2 18 -8 6 -10 4 -4 -5z"/>
<path d="M2371 2187 c2 -1 13 -9 24 -17 19 -14 19 -14 6 3 -7 9 -18 17 -24 17
-6 0 -8 -1 -6 -3z"/>
<path d="M316 2113 c-6 -14 -5 -15 5 -6 7 7 10 15 7 18 -3 3 -9 -2 -12 -12z"/>
<path d="M2360 2120 c-8 -5 -10 -10 -5 -10 6 0 17 5 25 10 8 5 11 10 5 10 -5
0 -17 -5 -25 -10z"/>
<path d="M2380 2106 c0 -2 7 -6 15 -10 8 -3 15 -1 15 4 0 6 -7 10 -15 10 -8 0
-15 -2 -15 -4z"/>
<path d="M345 2092 c-10 -7 -18 -32 -10 -32 2 0 9 9 15 20 12 22 11 24 -5 12z"/>
<path d="M2416 2082 c-2 -4 -1 -14 4 -22 7 -11 9 -9 7 8 -1 24 -3 26 -11 14z"/>
<path d="M2390 2063 c0 -6 8 -17 18 -24 16 -13 16 -13 2 6 -8 11 -16 22 -17
24 -2 2 -3 0 -3 -6z"/>
<path d="M2388 2013 c7 -3 16 -2 19 1 4 3 -2 6 -13 5 -11 0 -14 -3 -6 -6z"/>
<path d="M315 2000 c-3 -5 -1 -10 4 -10 6 0 11 5 11 10 0 6 -2 10 -4 10 -3 0
-8 -4 -11 -10z"/>
<path d="M346 1998 c3 -5 10 -6 15 -3 13 9 11 12 -6 12 -8 0 -12 -4 -9 -9z"/>
<path d="M2355 2000 c3 -5 8 -10 11 -10 2 0 4 5 4 10 0 6 -5 10 -11 10 -5 0
-7 -4 -4 -10z"/>
<path d="M2400 1995 c-14 -8 -20 -14 -14 -15 5 0 19 7 30 15 24 18 16 19 -16
0z"/>
<path d="M2360 1973 c0 -6 8 -17 18 -24 16 -13 16 -13 2 6 -8 11 -16 22 -17
24 -2 2 -3 0 -3 -6z"/>
<path d="M2406 1938 c3 -5 10 -6 15 -3 13 9 11 12 -6 12 -8 0 -12 -4 -9 -9z"/>
<path d="M2313 1910 c5 -29 13 -33 13 -5 0 14 -4 25 -8 25 -4 0 -7 -9 -5 -20z"/>
<path d="M2192 1867 c-7 -8 -7 -18 -2 -27 6 -8 10 -10 11 -5 0 6 2 18 4 28 4
20 1 21 -13 4z"/>
<path d="M418 1838 c2 -10 6 -18 7 -18 1 0 5 8 7 18 3 11 0 19 -7 19 -7 0 -10
-8 -7 -19z"/>
<path d="M470 1749 c0 -5 -5 -7 -12 -3 -7 4 -8 3 -4 -5 6 -9 11 -9 22 0 17 14
18 19 4 19 -5 0 -10 -5 -10 -11z"/>
<path d="M2107 1754 c-6 -7 3 -44 12 -44 10 0 11 39 2 45 -5 2 -11 2 -14 -1z"/>
<path d="M476 1682 c-3 -5 1 -9 9 -9 8 0 12 4 9 9 -3 4 -7 8 -9 8 -2 0 -6 -4
-9 -8z"/>
<path d="M629 1569 c-6 -31 -7 -40 -2 -35 4 3 12 1 20 -6 7 -6 16 -8 20 -4 3
3 1 6 -6 6 -7 0 -10 4 -7 9 3 5 -1 14 -9 21 -8 7 -15 11 -16 9z"/>
<path d="M2021 1536 c-10 -11 -9 -14 1 -12 14 2 23 15 15 22 -2 2 -10 -2 -16
-10z"/>
<path d="M737 1435 c-4 -9 -1 -12 10 -8 8 3 19 0 24 -8 6 -9 9 -10 9 -2 0 20
-37 35 -43 18z"/>
<path d="M2004 1393 c2 -10 6 -17 10 -16 15 3 16 11 2 22 -12 10 -14 9 -12 -6z"/>
<path d="M1039 1193 c-13 -16 -12 -17 4 -4 9 7 17 15 17 17 0 8 -8 3 -21 -13z"/>
<path d="M2047 1176 c-4 -10 -1 -13 8 -9 8 3 12 9 9 14 -7 12 -11 11 -17 -5z"/>
<path d="M1240 976 c7 -7 13 -7 20 0 6 6 3 10 -10 10 -13 0 -16 -4 -10 -10z"/>
<path d="M1277 943 c-4 -3 -7 -11 -7 -17 0 -6 5 -4 11 4 9 12 10 11 6 -7 -3
-15 -1 -20 9 -16 8 3 14 9 14 13 0 12 -26 30 -33 23z"/>
<path d="M1275 861 c-3 -5 -2 -12 3 -15 5 -3 9 1 9 9 0 17 -3 19 -12 6z"/>
<path d="M1325 841 c-3 -5 -2 -12 3 -15 5 -3 9 1 9 9 0 17 -3 19 -12 6z"/>
<path d="M2095 820 c-3 -5 -1 -10 4 -10 6 0 11 5 11 10 0 6 -2 10 -4 10 -3 0
-8 -4 -11 -10z"/>
<path d="M2096 738 c3 -5 10 -6 15 -3 13 9 11 12 -6 12 -8 0 -12 -4 -9 -9z"/>
<path d="M1256 701 c-3 -4 6 -8 20 -9 13 -1 24 0 24 2 0 7 -40 14 -44 7z"/>
<path d="M1119 633 c-13 -16 -12 -17 4 -4 9 7 17 15 17 17 0 8 -8 3 -21 -13z"/>
<path d="M1230 625 c-11 -13 -10 -14 4 -9 9 3 16 10 16 15 0 13 -6 11 -20 -6z"/>
<path d="M2067 599 c7 -7 15 -10 18 -7 3 3 -2 9 -12 12 -14 6 -15 5 -6 -5z"/>
<path d="M1136 581 c8 -8 43 -8 38 0 -2 4 -13 7 -24 6 -10 -1 -17 -3 -14 -6z"/>
<path d="M1239 588 c-2 -4 -10 -50 -12 -70 -1 -11 -7 -16 -17 -13 -8 2 -21 1
-28 -4 -11 -6 -6 -14 18 -31 17 -12 29 -28 26 -36 -3 -8 0 -11 10 -7 11 4 12
9 4 18 -8 9 -7 14 2 18 11 4 10 6 0 6 -8 1 -10 6 -5 14 8 12 10 18 12 39 1 9
4 9 13 0 16 -16 31 -15 25 2 -3 7 0 19 6 25 8 8 8 14 -1 23 -10 10 -15 10 -21
-1 -5 -8 -7 -19 -5 -26 3 -6 -2 -12 -9 -12 -8 0 -14 10 -14 23 0 13 3 21 8 18
5 -3 9 0 9 5 0 9 -17 16 -21 9z m51 -28 c0 -5 -5 -10 -11 -10 -5 0 -7 5 -4 10
3 6 8 10 11 10 2 0 4 -4 4 -10z m-61 -76 c-5 -6 -8 -13 -6 -15 1 -2 -3 1 -9 8
-6 7 -14 10 -17 6 -4 -3 -7 -2 -7 4 0 6 11 10 24 9 16 -1 21 -5 15 -12z"/>
<path d="M2011 567 c2 -1 13 -9 24 -17 19 -14 19 -14 6 3 -7 9 -18 17 -24 17
-6 0 -8 -1 -6 -3z"/>
<path d="M1155 549 c-4 -6 -5 -12 -2 -15 2 -3 7 2 10 11 7 17 1 20 -8 4z"/>
<path d="M1205 550 c-4 -6 -11 -8 -16 -5 -5 3 -6 -1 -3 -9 8 -21 11 -20 24 4
11 20 6 29 -5 10z"/>
<path d="M1093 530 c-1 -11 2 -22 6 -24 4 -3 7 4 6 14 -2 27 -10 33 -12 10z"/>
<path d="M1128 518 c10 -13 10 -17 0 -21 -9 -4 -9 -6 -1 -6 20 -2 24 16 5 30
-15 13 -16 12 -4 -3z"/>
<path d="M1165 520 c-3 -5 -1 -10 4 -10 6 0 11 5 11 10 0 6 -2 10 -4 10 -3 0
-8 -4 -11 -10z"/>
<path d="M1075 480 c3 -5 8 -10 11 -10 2 0 4 5 4 10 0 6 -5 10 -11 10 -5 0 -7
-4 -4 -10z"/>
<path d="M2035 469 c-4 -6 -5 -12 -2 -15 2 -3 7 2 10 11 7 17 1 20 -8 4z"/>
<path d="M1990 461 c0 -6 4 -12 8 -15 5 -3 9 1 9 9 0 8 -4 15 -9 15 -4 0 -8
-4 -8 -9z"/>
<path d="M1035 451 c-3 -5 -2 -12 3 -15 5 -3 9 1 9 9 0 17 -3 19 -12 6z"/>
<path d="M1060 415 c0 -5 5 -17 10 -25 5 -8 10 -10 10 -5 0 6 -5 17 -10 25 -5
8 -10 11 -10 5z"/>
<path d="M1988 403 c6 -2 18 -2 25 0 6 3 1 5 -13 5 -14 0 -19 -2 -12 -5z"/>
<path d="M1087 375 c-4 -8 -2 -17 3 -20 6 -4 10 -11 10 -17 0 -6 -6 -6 -15 2
-12 10 -19 10 -27 2 -7 -7 -8 -12 -3 -12 5 0 0 -7 -11 -16 -10 -8 -13 -12 -6
-9 7 4 31 8 53 10 29 3 42 -1 52 -16 8 -10 16 -17 19 -14 2 3 5 -2 5 -10 0 -8
-4 -15 -9 -15 -4 0 -8 5 -8 11 0 5 -5 7 -10 4 -6 -4 -8 -10 -5 -15 3 -5 -2
-15 -10 -23 -8 -9 -10 -17 -5 -19 6 -2 1 -9 -9 -15 -15 -9 -22 -10 -27 -1 -5
7 -3 8 6 3 8 -5 11 -4 7 2 -4 6 -18 9 -32 8 -22 -3 -24 0 -21 21 3 13 8 29 12
36 5 10 4 10 -5 2 -6 -6 -13 -20 -16 -32 -2 -12 -7 -26 -10 -32 -3 -5 -2 -18
4 -28 6 -11 6 -24 0 -33 -5 -7 -9 -11 -10 -6 -1 4 -3 12 -4 17 -1 6 -3 16 -4
23 -1 8 -4 8 -11 -3 -6 -10 -3 -21 12 -37 19 -20 19 -23 4 -29 -9 -3 -22 -4
-29 -1 -8 3 -14 -1 -14 -8 0 -9 11 -12 31 -10 53 5 73 18 64 41 -2 3 5 10 15
15 9 6 15 14 12 19 -3 5 3 11 14 15 10 3 24 19 31 35 6 16 18 31 26 34 8 3 14
12 14 21 0 8 5 15 10 15 6 0 10 5 10 11 0 5 -5 7 -11 4 -15 -10 -48 23 -44 44
2 11 -4 17 -16 18 -10 1 -19 -3 -19 -8 0 -6 -4 -8 -10 -4 -5 3 -7 12 -3 20 3
8 3 15 0 15 -3 0 -7 -7 -10 -15z m45 -32 c-1 -4 7 -17 16 -28 17 -20 17 -20
-5 -2 -12 11 -27 16 -33 12 -9 -6 -9 -2 0 15 11 20 22 22 22 3z m-47 -13 c3
-5 2 -10 -4 -10 -5 0 -13 5 -16 10 -3 6 -2 10 4 10 5 0 13 -4 16 -10z m-31
-132 c-4 -5 2 -8 11 -6 11 2 19 -4 20 -15 2 -9 -1 -15 -6 -11 -5 3 -6 11 -3
17 4 7 3 8 -2 4 -4 -4 -8 -20 -9 -34 0 -16 -9 -31 -25 -40 -23 -14 -24 -14 -6
1 15 12 16 16 5 16 -8 0 -10 3 -4 8 12 9 16 52 4 52 -5 0 -9 4 -9 8 0 5 7 9
15 9 8 0 12 -4 9 -9z"/>
<path d="M989 363 c-13 -16 -12 -17 4 -4 9 7 17 15 17 17 0 8 -8 3 -21 -13z"/>
<path d="M2035 370 c-3 -5 -3 -10 1 -10 4 0 -1 -7 -12 -16 -18 -15 -18 -15 0
-6 11 5 21 17 22 26 3 18 -2 21 -11 6z"/>
<path d="M1040 360 c-8 -5 -10 -10 -5 -10 6 0 17 5 25 10 8 5 11 10 5 10 -5 0
-17 -5 -25 -10z"/>
<path d="M1990 358 c0 -4 4 -8 9 -8 6 0 12 4 15 8 3 5 -1 9 -9 9 -8 0 -15 -4
-15 -9z"/>
<path d="M1013 325 c0 -8 4 -12 9 -9 5 3 6 10 3 15 -9 13 -12 11 -12 -6z"/>
<path d="M2034 321 c4 -6 0 -14 -8 -17 -12 -5 -13 -10 -5 -25 6 -13 6 -25 -1
-38 -11 -21 -23 -22 -60 -2 l-25 13 23 -21 c12 -12 22 -26 22 -32 0 -5 10 -1
22 11 12 11 29 20 37 19 11 0 12 -2 3 -6 -6 -2 -9 -9 -6 -15 4 -6 -4 -19 -17
-29 -21 -16 -22 -17 -4 -16 12 1 19 -3 17 -11 -1 -8 2 -11 9 -6 7 4 9 0 5 -12
-3 -11 -2 -25 3 -33 12 -18 48 -22 48 -5 0 10 -5 10 -21 2 -12 -6 -18 -7 -14
-3 4 5 2 15 -5 24 -11 14 -10 14 6 2 9 -8 20 -11 24 -7 4 3 -1 12 -11 19 -16
12 -16 14 -2 26 9 8 16 9 16 3 0 -6 -3 -12 -7 -15 -5 -2 -2 -2 5 0 8 1 10 -2
6 -10 -5 -9 -4 -9 7 1 7 6 18 12 24 12 5 0 2 -7 -8 -14 -10 -8 -15 -20 -11
-30 7 -18 34 -22 34 -5 0 5 5 7 10 4 6 -4 8 -11 5 -16 -4 -5 -1 -9 4 -9 14 0
14 17 1 25 -6 4 -7 11 -4 17 4 6 12 1 20 -13 7 -13 13 -19 14 -12 0 7 6 10 14
7 8 -3 17 -1 21 5 4 7 0 8 -11 4 -13 -5 -15 -3 -9 8 4 8 5 11 0 7 -4 -4 -17
-2 -28 3 -15 8 -22 8 -28 -2 -5 -8 -9 -12 -10 -9 0 3 -2 13 -4 23 -3 14 1 17
13 13 15 -5 15 -5 0 7 -10 8 -15 17 -11 21 4 4 -1 4 -11 0 -12 -5 -14 -9 -6
-14 8 -5 7 -9 -3 -13 -21 -8 -30 20 -10 32 15 8 14 11 -5 36 -18 22 -20 31
-10 49 9 17 6 16 -17 -6 -15 -16 -33 -28 -39 -28 -6 1 -2 8 10 18 11 10 18 24
16 31 -3 9 0 11 8 6 9 -5 11 -4 6 4 -9 14 -26 5 -26 -15 0 -8 -4 -14 -10 -14
-13 0 -13 23 1 37 8 8 7 13 -2 18 -8 5 -10 4 -5 -4z m51 -91 c3 -11 11 -20 18
-20 6 0 -2 -13 -18 -30 -22 -23 -31 -27 -42 -18 -9 7 -10 14 -3 23 5 6 12 22
14 36 3 13 5 25 5 27 3 10 21 -2 26 -18z m49 -121 c-3 -5 -10 -7 -15 -3 -5 3
-7 10 -3 15 3 5 10 7 15 3 5 -3 7 -10 3 -15z"/>
<path d="M2057 196 c-21 -31 -6 -43 18 -16 13 14 15 24 8 31 -7 7 -15 2 -26
-15z m9 -14 c-17 -16 -18 -16 -5 5 7 12 15 20 18 17 3 -2 -3 -12 -13 -22z"/>
<path d="M1110 301 c0 -5 -15 -8 -32 -6 -26 3 -29 2 -15 -6 14 -8 15 -14 6
-30 -6 -12 -9 -21 -7 -22 2 -1 14 -8 27 -15 12 -8 20 -9 17 -4 -3 5 1 15 9 22
8 7 13 16 10 20 -3 5 -1 11 4 15 6 3 8 12 4 20 -6 16 -23 20 -23 6z m11 -20
c-7 -5 -10 -14 -7 -20 4 -6 0 -11 -9 -11 -9 0 -13 -4 -10 -10 3 -6 -1 -7 -10
-3 -12 4 -13 8 -5 13 6 4 11 10 11 14 -3 18 1 22 21 23 16 2 19 0 9 -6z"/>
<path d="M2119 308 c-5 -18 -6 -38 -1 -34 7 8 12 36 6 36 -2 0 -4 -1 -5 -2z"/>
<path d="M1018 278 c4 -16 2 -19 -8 -13 -9 5 -11 4 -6 -3 10 -16 14 -15 25 7
8 14 7 20 -3 24 -10 4 -12 0 -8 -15z"/>
<path d="M2115 260 c-13 -6 -15 -9 -5 -9 8 0 22 4 30 9 18 12 2 12 -25 0z"/>
<path d="M2193 263 c4 -3 -1 -16 -10 -27 -18 -21 -18 -21 4 -2 20 16 23 36 6
36 -4 0 -3 -3 0 -7z"/>
<path d="M990 240 c0 -6 7 -10 15 -10 8 0 15 2 15 4 0 2 -7 6 -15 10 -8 3 -15
1 -15 -4z"/>
<path d="M2144 235 c-5 -13 -9 -13 -23 -3 -14 12 -15 11 -2 -4 16 -22 13 -22
34 2 9 11 12 20 7 20 -6 0 -13 -7 -16 -15z"/>
<path d="M2152 193 c2 -10 10 -17 17 -15 8 2 11 -3 8 -12 -3 -8 0 -17 8 -20
11 -4 12 0 5 17 -4 12 -14 21 -20 19 -8 -2 -10 3 -7 13 4 8 2 15 -4 15 -6 0
-9 -8 -7 -17z"/>
<path d="M976 183 c-6 -14 -5 -15 5 -6 7 7 10 15 7 18 -3 3 -9 -2 -12 -12z"/>
<path d="M2218 170 c15 -18 16 -34 0 -24 -7 4 -8 3 -4 -5 6 -9 11 -9 22 0 8 6
13 12 12 13 -2 1 -12 8 -23 16 -17 12 -18 12 -7 0z"/>
<path d="M975 150 c6 -10 3 -12 -13 -8 -12 4 -20 2 -16 -3 7 -12 31 -12 39 0
3 5 0 13 -6 17 -8 5 -9 3 -4 -6z"/>
<path d="M2295 140 c-3 -5 -1 -10 4 -10 6 0 11 5 11 10 0 6 -2 10 -4 10 -3 0
-8 -4 -11 -10z"/>
<path d="M935 109 c-4 -6 -5 -12 -2 -15 2 -3 7 2 10 11 7 17 1 20 -8 4z"/>
<path d="M2286 98 c3 -5 10 -6 15 -3 13 9 11 12 -6 12 -8 0 -12 -4 -9 -9z"/>
</g>
</svg>
